{"title":"Charulata 2011 (2012)  -  Bengali  -  DVD RIP  -  Adult","uid":7370212,"size":734062706,"categoryP":"video","categoryS":"movies","magnet":"?xt=urn:btih:4c1f50d130b50f11eb33b8e7502e7b6e2de848c1&amp;dn=Charulata+2011+%282012%29++-++Bengali++-++DVD+RIP++-++Adult&amp;tr=udp%3A%2F%2Ftracker.openbittorrent.com%3A80&amp;tr=udp%3A%2F%2Fopen.demonii.com%3A1337&amp;tr=udp%3A%2F%2Ftracker.coppersurfer.tk%3A6969&amp;tr=udp%3A%2F%2Fexodus.desync.com%3A6969","seeders":0,"leechers":2,"uploader":"joshea","files":-1,"time":1340212224,"description":"\n\n\nNote : 1st On Net. DVD Is Out Now. Enjoy.\n\n\n\nScreens : \n\n\n &lt;a href=&quot;\nhttp://i.imgur.com/wYze5.jpg&quot; rel=&quot;nofollow&quot; target=&quot;_NEW&quot;&gt;\nhttp://i.imgur.com/wYze5.jpg&lt;/a&gt;\n &lt;a href=&quot;\nhttp://i.imgur.com/bXHoU.jpg&quot; rel=&quot;nofollow&quot; target=&quot;_NEW&quot;&gt;\nhttp://i.imgur.com/bXHoU.jpg&lt;/a&gt;\n &lt;a href=&quot;\nhttp://i.imgur.com/gcbf8.jpg&quot; rel=&quot;nofollow&quot; target=&quot;_NEW&quot;&gt;\nhttp://i.imgur.com/gcbf8.jpg&lt;/a&gt;\n\n\n\nExtra Screens :\n\n\n &lt;a href=&quot;\nhttp://i.imgur.com/u3xao.jpg&quot; rel=&quot;nofollow&quot; target=&quot;_NEW&quot;&gt;\nhttp://i.imgur.com/u3xao.jpg&lt;/a&gt;\n &lt;a href=&quot;\nhttp://i.imgur.com/EWfNw.jpg&quot; rel=&quot;nofollow&quot; target=&quot;_NEW&quot;&gt;\nhttp://i.imgur.com/EWfNw.jpg&lt;/a&gt;\n &lt;a href=&quot;\nhttp://i.imgur.com/BrpKH.jpg&quot; rel=&quot;nofollow&quot; target=&quot;_NEW&quot;&gt;\nhttp://i.imgur.com/BrpKH.jpg&lt;/a&gt;\n\n\n\nMedia Info :\n\n\nFormat                           : AVI\nFormat/Info                      : Audio Video Interleave\nFile size                        : 699 MiB\nDuration                         : 2h 7mn\nOverall bit rate                 : 766 Kbps\n\nVideo\nID                               : 0\nFormat                           : MPEG-4 Visual\nFormat settings, GMC             : No warppoints\nFormat settings, Matrix          : Custom\nCodec ID                         : XVID\nCodec ID/Hint                    : XviD\nDuration                         : 2h 7mn\nBit rate                         : 639 Kbps\nWidth                            : 720 pixels\nHeight                           : 320 pixels\nDisplay aspect ratio             : 2.25:1\nFrame rate                       : 29.970 fps\nColor space                      : YUV\nChroma subsampling               : 4:2:0\nBit depth                        : 8 bits\nScan type                        : Progressive\nCompression mode                 : Lossy\nBits/(Pixel*Frame)               : 0.093\nStream size                      : 583 MiB (83%)\n\nAudio\nID                               : 1\nFormat                           : MPEG Audio\nFormat version                   : Version 1\nFormat profile                   : Layer 3\nMode                             : Joint stereo\nMode extension                   : MS Stereo\nCodec ID                         : 55\nCodec ID/Hint                    : MP3\nDuration                         : 2h 7mn\nBit rate mode                    : Variable\nBit rate                         : 114 Kbps\nNominal bit rate                 : 128 Kbps\nChannel(s)                       : 2 channels\nSampling rate                    : 48.0 KHz\nCompression mode                 : Lossy\nStream size                      : 104 MiB (15%)\nAlignment                        : Aligned on interleaves\nInterleave, duration             : 24 ms (0.72 video frame)\n\n\n\n\n\n","torrent":{"xt":"urn:btih:4c1f50d130b50f11eb33b8e7502e7b6e2de848c1","amp;dn":"Charulata+2011+%282012%29++-++Bengali++-++DVD+RIP++-++Adult","amp;tr":["udp%3A%2F%2Ftracker.openbittorrent.com%3A80","udp%3A%2F%2Fopen.demonii.com%3A1337","udp%3A%2F%2Ftracker.coppersurfer.tk%3A6969","udp%3A%2F%2Fexodus.desync.com%3A6969"],"infoHash":"4c1f50d130b50f11eb33b8e7502e7b6e2de848c1","infoHashBuffer":{"type":"Buffer","data":[76,31,80,209,48,181,15,17,235,51,184,231,80,46,123,110,45,232,72,193]},"announce":[],"urlList":[]}}